<?xml version="1.0" encoding="UTF-8" standalone="no"?>
<!DOCTYPE svg PUBLIC "-//W3C//DTD SVG 1.1//EN" "http://www.w3.org/Graphics/SVG/1.1/DTD/svg11.dtd">
<svg width="100%" height="100%" viewBox="0 0 24 24" version="1.1" xmlns="http://www.w3.org/2000/svg" xmlns:xlink="http://www.w3.org/1999/xlink" xml:space="preserve" style="fill-rule:evenodd;clip-rule:evenodd;stroke-linejoin:round;stroke-miterlimit:2;">
    <g transform="matrix(1,0,0,1,-416,-277)">
        <g transform="matrix(0.555556,0,0,0.888889,0,0)">
            <g id="social-youtube" transform="matrix(1.10213,0,0,0.688828,748.8,316.125)">
                <path d="M38.371,4.314C38.157,3.488 37.744,2.762 37.132,2.134C36.52,1.507 35.785,1.086 34.929,0.872C34.164,0.658 32.94,0.49 31.257,0.367C29.543,0.275 27.83,0.199 26.116,0.138C24.403,0.076 22.888,0.046 21.572,0.046C20.257,0.015 19.599,0 19.599,0C19.599,0 18.941,0.015 17.625,0.046C16.309,0.046 14.795,0.069 13.081,0.115C11.368,0.161 9.654,0.229 7.94,0.321C6.257,0.444 5.034,0.612 4.269,0.826C3.442,1.04 2.716,1.461 2.088,2.088C1.461,2.716 1.04,3.442 0.826,4.269C0.398,5.829 0.153,7.795 0.092,10.167C0.031,12.538 0,13.724 0,13.724C0,13.724 0.031,14.917 0.092,17.304C0.153,19.69 0.382,21.633 0.78,23.133C0.994,23.99 1.415,24.724 2.042,25.336C2.67,25.948 3.396,26.376 4.223,26.621C5.018,26.805 6.257,26.958 7.94,27.08C9.623,27.202 11.329,27.294 13.058,27.355C14.787,27.417 16.309,27.447 17.625,27.447L21.526,27.447C22.842,27.447 24.364,27.424 26.093,27.378C27.822,27.333 29.528,27.248 31.211,27.126C32.894,27.034 34.118,26.881 34.883,26.667C35.74,26.453 36.474,26.032 37.086,25.405C37.698,24.778 38.126,24.051 38.371,23.225C38.769,21.695 39.006,19.736 39.083,17.35C39.159,14.963 39.197,13.77 39.197,13.77C39.197,13.77 39.167,12.576 39.105,10.189C39.044,7.803 38.799,5.844 38.371,4.314ZM15.651,19.599L15.697,7.849L25.887,13.724L15.651,19.599Z" style="fill:white;fill-rule:nonzero;"/>
            </g>
        </g>
    </g>
</svg>
