<?xml version="1.0" encoding="UTF-8" standalone="no"?>
<!DOCTYPE svg PUBLIC "-//W3C//DTD SVG 1.1//EN" "http://www.w3.org/Graphics/SVG/1.1/DTD/svg11.dtd">
<svg width="24px" height="24px" version="1.1" xmlns="http://www.w3.org/2000/svg" xmlns:xlink="http://www.w3.org/1999/xlink" xml:space="preserve" style="fill-rule:evenodd;clip-rule:evenodd;stroke-linejoin:round;stroke-miterlimit:2;">
    <g transform="matrix(1,0,0,1,-276,-277)">
        <g transform="matrix(0.555556,0,0,0.888889,0,0)">
            <g id="social-email" transform="matrix(39.2022,0,0,24.5014,500.364,331.587)">
                <path d="M0.569,-0.435L0.569,-0.409C0.54,-0.432 0.503,-0.444 0.464,-0.444C0.359,-0.444 0.272,-0.359 0.272,-0.24C0.272,-0.123 0.359,-0.037 0.464,-0.037C0.512,-0.037 0.558,-0.053 0.596,-0.088C0.624,-0.05 0.669,-0.029 0.722,-0.029C0.839,-0.029 0.916,-0.129 0.916,-0.283C0.916,-0.516 0.725,-0.677 0.493,-0.677C0.246,-0.677 0.047,-0.495 0.047,-0.238C0.047,0.015 0.235,0.191 0.498,0.191C0.59,0.191 0.673,0.169 0.731,0.135L0.689,0.05C0.643,0.077 0.573,0.094 0.5,0.094C0.293,0.094 0.154,-0.04 0.154,-0.24C0.154,-0.438 0.293,-0.579 0.494,-0.579C0.675,-0.579 0.814,-0.465 0.814,-0.272C0.814,-0.17 0.777,-0.117 0.727,-0.117C0.694,-0.117 0.674,-0.139 0.674,-0.182L0.674,-0.435L0.569,-0.435ZM0.48,-0.133C0.421,-0.133 0.378,-0.175 0.378,-0.24C0.378,-0.306 0.421,-0.348 0.48,-0.348C0.512,-0.348 0.545,-0.336 0.569,-0.308L0.569,-0.173C0.547,-0.147 0.515,-0.133 0.48,-0.133Z" style="fill:white;fill-rule:nonzero;"/>
            </g>
        </g>
    </g>
</svg>
