<?xml version="1.0" encoding="UTF-8" standalone="no"?>
<!DOCTYPE svg PUBLIC "-//W3C//DTD SVG 1.1//EN" "http://www.w3.org/Graphics/SVG/1.1/DTD/svg11.dtd">
<svg width="24px" height="24px" version="1.1" xmlns="http://www.w3.org/2000/svg" xmlns:xlink="http://www.w3.org/1999/xlink" xml:space="preserve" style="fill-rule:evenodd;clip-rule:evenodd;stroke-linejoin:round;stroke-miterlimit:2;">
    <g transform="matrix(1,0,0,1,-218,-277)">
        <g transform="matrix(0.555556,0,0,0.888889,0,0)">
            <g id="social-twitter" transform="matrix(0.981375,0,0,0.613359,396,315)">
                <path d="M34.562,7.803L34.562,8.858C34.562,11.459 34.072,14.091 33.093,16.753C32.114,19.415 30.675,21.825 28.778,23.982C26.881,26.139 24.54,27.891 21.756,29.237C18.971,30.614 15.758,31.303 12.117,31.303C9.883,31.303 7.742,30.989 5.691,30.362C3.641,29.735 1.744,28.855 0,27.723C0.337,27.784 0.658,27.814 0.964,27.814L1.928,27.814C3.764,27.814 5.515,27.524 7.183,26.942C8.851,26.361 10.358,25.535 11.704,24.464C9.991,24.433 8.461,23.905 7.114,22.88C5.768,21.855 4.835,20.563 4.314,19.002C4.559,19.033 4.812,19.063 5.072,19.094C5.332,19.124 5.584,19.14 5.829,19.14C6.196,19.14 6.548,19.109 6.885,19.048C7.221,18.987 7.558,18.925 7.895,18.864C6.089,18.497 4.582,17.594 3.374,16.156C2.165,14.718 1.561,13.035 1.561,11.107L1.561,11.016C2.111,11.291 2.685,11.521 3.282,11.704C3.878,11.888 4.498,11.995 5.141,12.025C4.07,11.322 3.213,10.388 2.57,9.226C1.928,8.063 1.606,6.808 1.606,5.462C1.606,4.728 1.706,4.024 1.905,3.351C2.104,2.677 2.371,2.05 2.708,1.469C3.687,2.662 4.773,3.748 5.967,4.728C7.16,5.707 8.445,6.548 9.822,7.252C11.199,7.956 12.668,8.522 14.229,8.95C15.758,9.379 17.334,9.639 18.956,9.73C18.895,9.424 18.849,9.118 18.818,8.813C18.788,8.506 18.772,8.201 18.772,7.895C18.772,5.722 19.537,3.863 21.067,2.318C22.597,0.773 24.464,0 26.667,0C27.799,0 28.862,0.229 29.857,0.688C30.851,1.147 31.701,1.759 32.404,2.524C33.322,2.341 34.202,2.088 35.043,1.767C35.885,1.446 36.673,1.056 37.407,0.597C37.132,1.515 36.696,2.348 36.099,3.098C35.502,3.848 34.791,4.467 33.965,4.957C34.76,4.865 35.541,4.712 36.306,4.498C37.071,4.284 37.805,4.024 38.509,3.718C37.958,4.513 37.354,5.255 36.696,5.944C36.038,6.632 35.327,7.252 34.562,7.803Z" style="fill:white;fill-rule:nonzero;"/>
            </g>
        </g>
    </g>
</svg>
