<?xml version="1.0" encoding="UTF-8" standalone="no"?>
<!DOCTYPE svg PUBLIC "-//W3C//DTD SVG 1.1//EN" "http://www.w3.org/Graphics/SVG/1.1/DTD/svg11.dtd">
<svg width="100%" height="100%" viewBox="0 0 24 24" version="1.1" xmlns="http://www.w3.org/2000/svg" xmlns:xlink="http://www.w3.org/1999/xlink" xml:space="preserve" style="fill-rule:evenodd;clip-rule:evenodd;stroke-linejoin:round;stroke-miterlimit:2;">
    <g transform="matrix(1,0,0,1,-360,-277)">
        <g transform="matrix(0.555556,0,0,0.888889,0,0)">
            <g id="social-instagram" transform="matrix(1.12942,0,0,0.70589,649.893,313.419)">
                <path d="M17.625,8.583C16.37,8.583 15.192,8.812 14.091,9.271C12.989,9.761 12.033,10.411 11.222,11.222C10.411,12.033 9.761,12.989 9.271,14.091C8.812,15.192 8.583,16.37 8.583,17.625C8.583,18.88 8.812,20.058 9.271,21.159C9.761,22.261 10.411,23.217 11.222,24.028C12.033,24.839 12.989,25.489 14.091,25.979C15.192,26.438 16.37,26.667 17.625,26.667C18.88,26.667 20.058,26.438 21.159,25.979C22.261,25.489 23.217,24.839 24.028,24.028C24.839,23.217 25.489,22.261 25.979,21.159C26.438,20.058 26.667,18.88 26.667,17.625C26.667,16.37 26.438,15.192 25.979,14.091C25.489,12.989 24.839,12.033 24.028,11.222C23.217,10.411 22.261,9.761 21.159,9.271C20.058,8.812 18.88,8.583 17.625,8.583ZM17.625,23.5C16.003,23.5 14.619,22.926 13.471,21.779C12.324,20.631 11.75,19.247 11.75,17.625C11.75,16.003 12.324,14.619 13.471,13.471C14.619,12.324 16.003,11.75 17.625,11.75C19.247,11.75 20.631,12.324 21.779,13.471C22.926,14.619 23.5,16.003 23.5,17.625C23.5,19.247 22.926,20.631 21.779,21.779C20.631,22.926 19.247,23.5 17.625,23.5ZM29.146,8.216C29.146,7.634 28.939,7.145 28.526,6.747C28.113,6.349 27.616,6.15 27.034,6.15C26.453,6.15 25.956,6.349 25.542,6.747C25.129,7.145 24.923,7.634 24.923,8.216C24.923,8.828 25.129,9.333 25.542,9.73C25.956,10.128 26.453,10.327 27.034,10.327C27.616,10.327 28.113,10.128 28.526,9.73C28.939,9.333 29.146,8.828 29.146,8.216ZM34.332,6.104C33.873,4.911 33.192,3.863 32.29,2.96C31.387,2.058 30.354,1.377 29.191,0.918C28.488,0.673 27.776,0.482 27.057,0.344C26.338,0.207 25.611,0.138 24.877,0.138C23.959,0.076 23.118,0.038 22.353,0.023C21.588,0.008 20.012,0 17.625,0C15.238,0 13.662,0.008 12.897,0.023C12.132,0.038 11.291,0.076 10.373,0.138C9.639,0.138 8.912,0.207 8.193,0.344C7.474,0.482 6.778,0.673 6.104,0.918C4.911,1.377 3.863,2.058 2.96,2.96C2.058,3.863 1.377,4.911 0.918,6.104C0.673,6.778 0.482,7.474 0.344,8.193C0.207,8.912 0.122,9.639 0.092,10.373C0.061,11.322 0.038,12.171 0.023,12.92C0.008,13.67 0,15.238 0,17.625C0,20.012 0.008,21.588 0.023,22.353C0.038,23.118 0.061,23.974 0.092,24.923C0.122,25.657 0.207,26.376 0.344,27.08C0.482,27.784 0.673,28.488 0.918,29.191C1.377,30.385 2.058,31.425 2.96,32.313C3.863,33.2 4.911,33.873 6.104,34.332C6.778,34.607 7.474,34.822 8.193,34.975C8.912,35.128 9.639,35.204 10.373,35.204C11.322,35.265 12.171,35.304 12.92,35.319C13.67,35.334 15.238,35.342 17.625,35.342C20.012,35.342 21.588,35.334 22.353,35.319C23.118,35.304 23.974,35.265 24.923,35.204C25.627,35.204 26.338,35.135 27.057,34.998C27.776,34.86 28.488,34.669 29.191,34.424C30.385,33.965 31.425,33.284 32.313,32.381C33.2,31.479 33.873,30.431 34.332,29.237C34.607,28.564 34.814,27.868 34.952,27.149C35.089,26.43 35.158,25.703 35.158,24.969C35.189,24.02 35.212,23.171 35.227,22.421C35.242,21.672 35.25,20.104 35.25,17.717L35.25,12.966C35.25,12.217 35.219,11.368 35.158,10.419C35.158,9.685 35.089,8.95 34.952,8.216C34.814,7.481 34.607,6.778 34.332,6.104ZM31.945,24.739C31.945,25.321 31.892,25.887 31.785,26.438C31.678,26.988 31.532,27.524 31.349,28.044C31.043,28.84 30.599,29.528 30.018,30.109C29.436,30.691 28.763,31.119 27.998,31.395C27.478,31.609 26.942,31.762 26.392,31.854C25.841,31.945 25.29,32.007 24.739,32.037C23.791,32.068 22.957,32.091 22.238,32.106C21.519,32.121 19.966,32.129 17.579,32.129C15.192,32.129 13.639,32.121 12.92,32.106C12.201,32.091 11.368,32.068 10.419,32.037C9.838,32.037 9.279,31.984 8.744,31.876C8.208,31.769 7.665,31.609 7.114,31.395C6.349,31.119 5.676,30.691 5.095,30.109C4.513,29.528 4.07,28.84 3.764,28.044C3.58,27.524 3.435,26.988 3.328,26.438C3.221,25.887 3.167,25.336 3.167,24.785C3.106,23.867 3.075,23.041 3.075,22.307L3.075,12.966C3.075,12.247 3.106,11.413 3.167,10.465C3.167,9.914 3.221,9.363 3.328,8.812C3.435,8.262 3.58,7.711 3.764,7.16C4.07,6.395 4.513,5.722 5.095,5.141C5.676,4.559 6.349,4.116 7.114,3.81C7.665,3.626 8.208,3.481 8.744,3.374C9.279,3.266 9.838,3.213 10.419,3.213C11.337,3.182 12.163,3.159 12.897,3.144C13.632,3.129 15.192,3.121 17.579,3.121L22.238,3.121C22.957,3.121 23.791,3.152 24.739,3.213C25.29,3.213 25.841,3.266 26.392,3.374C26.942,3.481 27.478,3.626 27.998,3.81C28.763,4.116 29.436,4.559 30.018,5.141C30.599,5.722 31.043,6.395 31.349,7.16C31.532,7.711 31.678,8.254 31.785,8.79C31.892,9.325 31.945,9.883 31.945,10.465C31.976,11.383 31.999,12.209 32.014,12.943C32.029,13.678 32.037,15.238 32.037,17.625L32.037,22.284C32.037,23.003 32.022,23.821 31.991,24.739L31.945,24.739Z" style="fill:white;fill-rule:nonzero;"/>
            </g>
        </g>
    </g>
</svg>
