<?xml version="1.0" encoding="UTF-8" standalone="no"?>
<!DOCTYPE svg PUBLIC "-//W3C//DTD SVG 1.1//EN" "http://www.w3.org/Graphics/SVG/1.1/DTD/svg11.dtd">
<svg width="24px" height="24px" version="1.1" xmlns="http://www.w3.org/2000/svg" xmlns:xlink="http://www.w3.org/1999/xlink" xml:space="preserve" style="fill-rule:evenodd;clip-rule:evenodd;stroke-linejoin:round;stroke-miterlimit:2;">
    <g transform="matrix(1,0,0,1,-97,-277)">
        <g transform="matrix(0.555556,0,0,0.888889,0,0)">
            <g id="social-linkedin" transform="matrix(0.933126,0,0,0.583204,180.497,315)">
                <path d="M8.583,4.314C8.583,5.477 8.162,6.479 7.321,7.321C6.479,8.162 5.477,8.583 4.314,8.583C3.121,8.583 2.104,8.162 1.262,7.321C0.421,6.479 0,5.477 0,4.314C0,3.121 0.421,2.104 1.262,1.262C2.104,0.421 3.121,0 4.314,0C5.477,0 6.479,0.421 7.321,1.262C8.162,2.104 8.583,3.121 8.583,4.314ZM19.69,11.842L19.69,15.101L19.828,15.101C20.318,14.152 21.152,13.272 22.33,12.461C23.508,11.651 24.999,11.245 26.805,11.245C30.538,11.245 32.947,12.331 34.034,14.504C35.12,16.676 35.663,19.369 35.663,22.582L35.663,35.617L28.273,35.617L28.273,24.051C28.273,22.674 28.105,21.282 27.769,19.874C27.432,18.466 26.315,17.763 24.418,17.763C22.521,17.763 21.312,18.39 20.792,19.645C20.272,20.899 20.012,22.307 20.012,23.867L20.012,35.617L12.622,35.617L12.622,11.842L19.69,11.842ZM0.597,11.842L7.986,11.842L7.986,35.617L0.597,35.617L0.597,11.842Z" style="fill:white;fill-rule:nonzero;"/>
            </g>
        </g>
    </g>
</svg>
