<?xml version="1.0" encoding="UTF-8" standalone="no"?>
<!DOCTYPE svg PUBLIC "-//W3C//DTD SVG 1.1//EN" "http://www.w3.org/Graphics/SVG/1.1/DTD/svg11.dtd">
<svg width="100%" height="100%" viewBox="0 0 18 19" version="1.1" xmlns="http://www.w3.org/2000/svg" xmlns:xlink="http://www.w3.org/1999/xlink" xml:space="preserve" xmlns:serif="http://www.serif.com/" style="fill-rule:evenodd;clip-rule:evenodd;stroke-linejoin:round;stroke-miterlimit:2;">
    <g transform="matrix(1,0,0,1,-2253,-119)">
        <g transform="matrix(1,0,0,1.14286,1780,0)">
            <g id="icon-google-play" transform="matrix(0.397953,0,0,0.348209,473.35,104.384)">
                <path d="M27.539,21.48L7.344,1.193L33.047,15.973L27.539,21.48ZM2.02,0C0.734,0.673 0.061,1.744 0,3.213L0,43.787C0.061,45.256 0.734,46.327 2.02,47L25.611,23.5L2.02,0ZM41.033,20.746L35.617,17.625L29.65,23.5L35.617,29.467L41.125,26.254C41.982,25.581 42.41,24.663 42.41,23.5C42.41,22.337 41.951,21.419 41.033,20.746ZM7.344,45.807L33.047,31.027L27.539,25.52L7.344,45.807Z" style="fill-rule:nonzero;"/>
            </g>
        </g>
    </g>
</svg>
