<?xml version="1.0" encoding="UTF-8" standalone="no"?>
<!DOCTYPE svg PUBLIC "-//W3C//DTD SVG 1.1//EN" "http://www.w3.org/Graphics/SVG/1.1/DTD/svg11.dtd">
<svg width="100%" height="100%" viewBox="0 0 16 19" version="1.1" xmlns="http://www.w3.org/2000/svg" xmlns:xlink="http://www.w3.org/1999/xlink" xml:space="preserve" xmlns:serif="http://www.serif.com/" style="fill-rule:evenodd;clip-rule:evenodd;stroke-linejoin:round;stroke-miterlimit:2;">
    <g transform="matrix(1,0,0,1,-2212,-119)">
        <g transform="matrix(1,0,0,1.14286,1780,0)">
            <g id="icon-app-store" transform="matrix(0.502402,0,0,0.439602,432.072,104.398)">
                <path d="M30.706,28.977C30.4,29.681 30.079,30.331 29.742,30.928C29.406,31.525 29.054,32.098 28.687,32.649L28.687,32.603C28.166,33.338 27.692,33.965 27.264,34.485C26.835,35.005 26.453,35.418 26.116,35.724C25.627,36.183 25.099,36.535 24.533,36.78C23.967,37.025 23.393,37.162 22.812,37.193C22.383,37.193 21.917,37.132 21.412,37.009C20.907,36.887 20.348,36.703 19.736,36.459C19.155,36.214 18.589,36.03 18.038,35.908C17.487,35.785 16.967,35.724 16.478,35.724C15.957,35.724 15.414,35.785 14.848,35.908C14.282,36.03 13.693,36.214 13.081,36.459C12.469,36.703 11.918,36.887 11.429,37.009C10.939,37.132 10.511,37.193 10.144,37.193C9.593,37.224 9.034,37.117 8.468,36.872C7.902,36.627 7.328,36.244 6.747,35.724C6.41,35.418 6.013,34.99 5.554,34.439C5.095,33.888 4.605,33.23 4.085,32.465C3.504,31.67 2.976,30.798 2.501,29.849C2.027,28.901 1.591,27.891 1.193,26.82C0.796,25.657 0.497,24.517 0.298,23.401C0.099,22.284 0,21.174 0,20.073C0,18.818 0.138,17.656 0.413,16.585C0.688,15.514 1.102,14.535 1.652,13.647C2.05,12.913 2.532,12.263 3.098,11.696C3.664,11.13 4.299,10.633 5.003,10.205C5.676,9.807 6.403,9.493 7.183,9.264C7.963,9.034 8.767,8.92 9.593,8.92C10.052,8.92 10.58,8.988 11.176,9.126C11.773,9.264 12.438,9.47 13.173,9.746C13.877,10.021 14.466,10.228 14.94,10.365C15.414,10.503 15.758,10.572 15.973,10.572C16.126,10.572 16.462,10.488 16.982,10.319C17.503,10.151 18.206,9.899 19.094,9.562C19.92,9.287 20.685,9.08 21.389,8.943C22.092,8.805 22.735,8.767 23.316,8.828C24.877,8.95 26.246,9.325 27.424,9.952C28.602,10.58 29.589,11.444 30.385,12.546C28.977,13.402 27.929,14.42 27.241,15.598C26.552,16.776 26.208,18.13 26.208,19.66C26.208,20.853 26.43,21.939 26.874,22.919C27.317,23.898 27.952,24.785 28.778,25.581C29.146,25.917 29.543,26.231 29.972,26.522C30.4,26.812 30.844,27.049 31.303,27.233L31.349,27.279C31.257,27.585 31.157,27.876 31.05,28.151C30.943,28.426 30.828,28.702 30.706,28.977ZM23.546,0.75C23.546,1.668 23.37,2.563 23.018,3.435C22.666,4.307 22.154,5.141 21.48,5.936C20.654,6.885 19.759,7.619 18.795,8.139C17.832,8.66 16.814,8.874 15.743,8.782C15.713,8.69 15.697,8.583 15.697,8.461L15.697,8.093C15.697,7.206 15.881,6.303 16.248,5.385C16.615,4.467 17.151,3.611 17.854,2.815C18.191,2.417 18.581,2.058 19.025,1.736C19.469,1.415 19.951,1.117 20.471,0.841C21.021,0.597 21.542,0.398 22.031,0.245C22.521,0.092 23.01,0 23.5,-0.031C23.5,0.122 23.508,0.26 23.523,0.382C23.538,0.505 23.546,0.627 23.546,0.75Z" style="fill:white;fill-rule:nonzero;"/>
            </g>
        </g>
    </g>
</svg>
