<?xml version="1.0" encoding="UTF-8" standalone="no"?>
<!DOCTYPE svg PUBLIC "-//W3C//DTD SVG 1.1//EN" "http://www.w3.org/Graphics/SVG/1.1/DTD/svg11.dtd">
<svg width="100%" height="100%" viewBox="0 0 207 20" version="1.1" xmlns="http://www.w3.org/2000/svg" xmlns:xlink="http://www.w3.org/1999/xlink" xml:space="preserve" xmlns:serif="http://www.serif.com/" style="fill-rule:evenodd;clip-rule:evenodd;stroke-linejoin:round;stroke-miterlimit:2;">
    <g transform="matrix(1,0,0,1,-503,-510)">
        <g transform="matrix(1,0,0,7.60095,0,0)">
            <g id="AAX-trends-logo" transform="matrix(1,0,0,0.131562,503.378,67.0858)">
                <g transform="matrix(1,0,0,1,0,-0.173)">
                    <rect x="79.212" y="0.328" width="1.5" height="19.517" style="fill:rgb(33,33,33);"/>
                </g>
                <g transform="matrix(1,0,0,1,15.3711,19.672)">
                    <path d="M0,-19.517L-15.249,0L-10.912,0L0.842,-15.046L0.842,0L4.335,0L4.335,-19.517L0,-19.517Z" style="fill:rgb(33,33,33);fill-rule:nonzero;"/>
                </g>
                <g transform="matrix(1,0,0,1,38.9853,19.672)">
                    <path d="M0,-19.517L-15.248,0L-10.913,0L0.841,-15.046L0.841,0L4.335,0L4.335,-19.517L0,-19.517Z" style="fill:rgb(33,33,33);fill-rule:nonzero;"/>
                </g>
                <g transform="matrix(0.615628,0.788037,0.788037,-0.615628,61.0823,-3.81017)">
                    <path d="M-3.926,-11.467L20.84,-11.467L23.509,-8.05L-1.258,-8.052L-3.926,-11.467Z" style="fill:rgb(33,33,33);fill-rule:nonzero;"/>
                </g>
                <g transform="matrix(-0.615628,0.788037,0.788037,0.615628,63.7516,20.2202)">
                    <path d="M-16.504,-11.467L8.262,-11.467L5.594,-8.051L-19.173,-8.05L-16.504,-11.467Z" style="fill:rgb(0,125,255);fill-rule:nonzero;"/>
                </g>
                <g transform="matrix(1,0,0,1,90.4329,19.6246)">
                    <path d="M0,-19.25L0,-16.857L6.6,-16.857L6.6,0L9.322,0L9.322,-16.857L15.922,-16.857L15.922,-19.25L0,-19.25Z" style="fill:rgb(33,33,33);fill-rule:nonzero;"/>
                </g>
                <g transform="matrix(1,0,0,1,120.765,9.6967)">
                    <path d="M0,0.606C0.916,-0.146 1.375,-1.218 1.375,-2.612C1.375,-4.005 0.916,-5.073 0,-5.815C-0.918,-6.558 -2.246,-6.929 -3.988,-6.929L-8.662,-6.929L-8.662,1.733L-3.988,1.733C-2.246,1.733 -0.918,1.358 0,0.606M1.457,9.928L-2.695,4.016C-3.209,4.053 -3.612,4.071 -3.905,4.071L-8.662,4.071L-8.662,9.928L-11.412,9.928L-11.412,-9.322L-3.905,-9.322C-1.412,-9.322 0.55,-8.726 1.979,-7.534C3.41,-6.342 4.125,-4.702 4.125,-2.612C4.125,-1.127 3.758,0.138 3.025,1.183C2.291,2.228 1.246,2.989 -0.11,3.466L4.455,9.928L1.457,9.928Z" style="fill:rgb(33,33,33);fill-rule:nonzero;"/>
                </g>
                <g transform="matrix(1,0,0,1,143.314,2.7684)">
                    <path d="M0,14.464L0,16.857L-13.969,16.857L-13.969,-2.393L-0.385,-2.393L-0.385,-0.001L-11.219,-0.001L-11.219,5.912L-1.566,5.912L-1.566,8.249L-11.219,8.249L-11.219,14.464L0,14.464Z" style="fill:rgb(33,33,33);fill-rule:nonzero;"/>
                </g>
                <g transform="matrix(1,0,0,1,164.324,19.625)">
                    <path d="M0,-19.25L0,0L-2.254,0L-13.805,-14.355L-13.805,0L-16.555,0L-16.555,-19.25L-14.299,-19.25L-2.75,-4.895L-2.75,-19.25L0,-19.25Z" style="fill:rgb(33,33,33);fill-rule:nonzero;"/>
                </g>
                <g transform="matrix(1,0,0,1,178.046,2.7684)">
                    <path d="M0,14.464C1.559,14.464 2.93,14.162 4.111,13.557C5.295,12.952 6.206,12.104 6.848,11.013C7.49,9.922 7.811,8.662 7.811,7.232C7.811,5.801 7.49,4.541 6.848,3.45C6.206,2.36 5.295,1.511 4.111,0.906C2.93,0.301 1.559,-0.001 0,-0.001L-5.197,-0.001L-5.197,14.464L0,14.464ZM-7.947,-2.393L0.166,-2.393C2.201,-2.393 4.006,-1.99 5.583,-1.183C7.16,-0.376 8.383,0.756 9.254,2.213C10.125,3.671 10.561,5.343 10.561,7.232C10.561,9.12 10.125,10.793 9.254,12.25C8.383,13.708 7.16,14.84 5.583,15.647C4.006,16.454 2.201,16.857 0.166,16.857L-7.947,16.857L-7.947,-2.393Z" style="fill:rgb(33,33,33);fill-rule:nonzero;"/>
                </g>
                <g transform="matrix(1,0,0,1,194.23,0.8284)">
                    <path d="M0,18.343C-1.348,17.894 -2.406,17.312 -3.176,16.596L-2.158,14.451C-1.426,15.112 -0.485,15.648 0.66,16.06C1.807,16.473 2.984,16.679 4.194,16.679C5.789,16.679 6.98,16.409 7.77,15.868C8.557,15.327 8.951,14.608 8.951,13.709C8.951,13.049 8.736,12.513 8.306,12.1C7.875,11.688 7.344,11.372 6.711,11.152C6.078,10.931 5.184,10.684 4.029,10.409C2.58,10.061 1.412,9.713 0.523,9.364C-0.366,9.016 -1.127,8.48 -1.76,7.756C-2.393,7.031 -2.708,6.055 -2.708,4.826C-2.708,3.8 -2.438,2.874 -1.896,2.049C-1.356,1.224 -0.535,0.564 0.564,0.069C1.664,-0.426 3.029,-0.674 4.662,-0.674C5.799,-0.674 6.917,-0.527 8.017,-0.233C9.117,0.06 10.061,0.482 10.85,1.031L9.941,3.232C9.135,2.718 8.273,2.329 7.357,2.063C6.439,1.797 5.542,1.664 4.662,1.664C3.104,1.664 1.935,1.948 1.156,2.517C0.376,3.085 -0.014,3.819 -0.014,4.717C-0.014,5.377 0.207,5.913 0.646,6.325C1.087,6.738 1.632,7.059 2.283,7.288C2.934,7.517 3.818,7.76 4.937,8.017C6.385,8.365 7.549,8.714 8.43,9.062C9.309,9.41 10.065,9.942 10.698,10.656C11.33,11.372 11.646,12.334 11.646,13.544C11.646,14.552 11.371,15.474 10.822,16.308C10.271,17.142 9.438,17.802 8.319,18.288C7.201,18.774 5.826,19.017 4.194,19.017C2.746,19.017 1.348,18.792 0,18.343" style="fill:rgb(33,33,33);fill-rule:nonzero;"/>
                </g>
            </g>
        </g>
    </g>
</svg>
