<?xml version="1.0" encoding="UTF-8" standalone="no"?>
<!DOCTYPE svg PUBLIC "-//W3C//DTD SVG 1.1//EN" "http://www.w3.org/Graphics/SVG/1.1/DTD/svg11.dtd">
<svg width="100%" height="100%" viewBox="0 0 20 18" version="1.1" xmlns="http://www.w3.org/2000/svg" xmlns:xlink="http://www.w3.org/1999/xlink" xml:space="preserve" xmlns:serif="http://www.serif.com/" style="fill-rule:evenodd;clip-rule:evenodd;stroke-linejoin:round;stroke-miterlimit:2;">
    <path id="icon-locales" d="M13.34,13.675L16.109,13.675L14.704,9.942L13.34,13.675ZM15.587,7.655L19.44,17.929L17.714,17.929L16.751,15.361L12.697,15.361L11.734,17.929L10.008,17.929L13.861,7.655L15.587,7.655ZM10.771,11.989L10.088,13.755L7.439,11.106L3.145,15.361L1.941,14.157L6.316,9.862C5.245,8.685 4.389,7.387 3.747,5.969L5.473,5.969C6.035,7.039 6.69,7.989 7.439,8.819C8.67,7.454 9.58,5.929 10.169,4.243L0.576,4.243L0.576,2.517L6.597,2.517L6.597,0.831L8.282,0.831L8.282,2.517L14.303,2.517L14.303,4.243L11.774,4.243C11.078,6.384 10.022,8.243 8.603,9.822L8.563,9.862L10.771,11.989Z" style="fill:rgb(0,124,255);fill-rule:nonzero;"/>
</svg>
