<?xml version="1.0" encoding="UTF-8" standalone="no"?>
<!DOCTYPE svg PUBLIC "-//W3C//DTD SVG 1.1//EN" "http://www.w3.org/Graphics/SVG/1.1/DTD/svg11.dtd">
<svg width="100%" height="100%" viewBox="0 0 20 20" version="1.1" xmlns="http://www.w3.org/2000/svg" xmlns:xlink="http://www.w3.org/1999/xlink" xml:space="preserve" xmlns:serif="http://www.serif.com/" style="fill-rule:evenodd;clip-rule:evenodd;stroke-linejoin:round;stroke-miterlimit:2;">
    <path id="icon-search" d="M8.585,17.082C9.514,17.082 10.397,16.932 11.232,16.633C12.068,16.334 12.832,15.916 13.525,15.38L17.946,19.824L19.364,18.382L14.944,13.962C15.479,13.268 15.897,12.504 16.196,11.669C16.496,10.834 16.646,9.951 16.646,9.021C16.646,7.902 16.433,6.854 16.007,5.877C15.582,4.9 15.007,4.045 14.282,3.312C13.557,2.579 12.698,2 11.705,1.575C10.728,1.149 9.688,0.937 8.585,0.937C7.466,0.937 6.418,1.149 5.441,1.575C4.464,2 3.609,2.579 2.876,3.312C2.143,4.045 1.564,4.9 1.138,5.877C0.713,6.854 0.5,7.902 0.5,9.021C0.5,10.124 0.713,11.164 1.138,12.142C1.564,13.134 2.143,13.993 2.876,14.718C3.609,15.443 4.464,16.018 5.441,16.444C6.418,16.869 7.466,17.082 8.585,17.082ZM8.585,2.969C9.42,2.969 10.2,3.127 10.925,3.442C11.666,3.757 12.308,4.187 12.852,4.731C13.395,5.274 13.833,5.917 14.164,6.657C14.479,7.398 14.636,8.186 14.636,9.021C14.636,9.856 14.479,10.637 14.164,11.361C13.833,12.102 13.395,12.744 12.852,13.288C12.308,13.832 11.666,14.269 10.925,14.6C10.2,14.915 9.42,15.073 8.585,15.073C7.749,15.073 6.961,14.915 6.221,14.6C5.48,14.269 4.838,13.832 4.294,13.288C3.75,12.744 3.321,12.102 3.006,11.361C2.691,10.637 2.533,9.856 2.533,9.021C2.533,8.186 2.691,7.398 3.006,6.657C3.321,5.917 3.75,5.274 4.294,4.731C4.838,4.187 5.48,3.757 6.221,3.442C6.961,3.127 7.749,2.969 8.585,2.969Z" style="fill:white;fill-rule:nonzero;"/>
</svg>
