<?xml version="1.0" encoding="UTF-8" standalone="no"?>
<!DOCTYPE svg PUBLIC "-//W3C//DTD SVG 1.1//EN" "http://www.w3.org/Graphics/SVG/1.1/DTD/svg11.dtd">
<svg width="100%" height="100%" viewBox="0 0 24 24" version="1.1" xmlns="http://www.w3.org/2000/svg" xmlns:xlink="http://www.w3.org/1999/xlink" xml:space="preserve" xmlns:serif="http://www.serif.com/" style="fill-rule:evenodd;clip-rule:evenodd;stroke-linejoin:round;stroke-miterlimit:2;">
    <g transform="matrix(1,0,0,1,-238,-227)">
        <g transform="matrix(1,0,0,7.60095,0,0)">
            <g id="social-linkedin" transform="matrix(0.388698,0,0,0.0511381,242.374,30.3673)">
                <path d="M0.092,11.75L8.813,11.75L8.813,44.063L0.092,44.063L0.092,11.75ZM26.713,11.75C26.284,11.75 25.871,11.781 25.474,11.842C25.076,11.903 24.693,11.995 24.326,12.117C23.959,12.24 23.653,12.347 23.408,12.438C23.163,12.53 22.857,12.683 22.49,12.897C22.123,13.112 21.894,13.249 21.802,13.311C21.71,13.372 21.48,13.555 21.113,13.861C20.746,14.167 20.562,14.32 20.562,14.32L20.562,11.75L11.842,11.75L11.842,44.063L20.562,44.063L20.562,23.316C20.562,23.133 20.639,22.796 20.792,22.307C20.945,21.817 21.159,21.404 21.435,21.067C21.71,20.731 22.169,20.41 22.812,20.104C23.454,19.798 24.204,19.645 25.061,19.645C26.529,19.645 27.616,20.012 28.319,20.746C29.023,21.48 29.375,22.46 29.375,23.684L29.375,44.063L38.646,44.063L38.646,24.051C38.646,21.909 38.31,20.058 37.637,18.497C36.964,16.937 36.183,15.743 35.296,14.917C34.409,14.091 33.368,13.418 32.175,12.897C30.981,12.377 29.972,12.056 29.146,11.934C28.319,11.811 27.508,11.75 26.713,11.75ZM1.285,1.285C0.428,2.142 0,3.182 0,4.406C0,5.63 0.428,6.671 1.285,7.527C2.142,8.384 3.182,8.813 4.406,8.813C5.63,8.813 6.671,8.384 7.527,7.527C8.384,6.671 8.813,5.63 8.813,4.406C8.813,3.182 8.384,2.142 7.527,1.285C6.671,0.428 5.63,0 4.406,0C3.182,0 2.142,0.428 1.285,1.285Z" style="fill:rgb(0,124,255);fill-rule:nonzero;"/>
            </g>
        </g>
    </g>
</svg>
