<?xml version="1.0" encoding="UTF-8" standalone="no"?>
<!DOCTYPE svg PUBLIC "-//W3C//DTD SVG 1.1//EN" "http://www.w3.org/Graphics/SVG/1.1/DTD/svg11.dtd">
<svg width="100%" height="100%" viewBox="0 0 24 24" version="1.1" xmlns="http://www.w3.org/2000/svg" xmlns:xlink="http://www.w3.org/1999/xlink" xml:space="preserve" xmlns:serif="http://www.serif.com/" style="fill-rule:evenodd;clip-rule:evenodd;stroke-linejoin:round;stroke-miterlimit:2;">
    <g transform="matrix(1,0,0,1,-191,-271)">
        <g transform="matrix(1,0,0,7.60095,0,0)">
            <g id="social-discord" transform="matrix(0.545279,0,0,0.0717382,192.249,36.1255)">
                <path d="M25.152,0.092C24.999,0.398 24.839,0.719 24.67,1.056C24.502,1.392 24.341,1.744 24.188,2.111L24.143,2.249C23.469,2.127 22.75,2.035 21.985,1.974C21.22,1.912 20.44,1.882 19.645,1.882C18.849,1.882 18.061,1.912 17.281,1.974C16.5,2.035 15.743,2.127 15.009,2.249L15.146,2.249C14.993,1.821 14.825,1.423 14.642,1.056C14.458,0.688 14.274,0.337 14.091,0L14.137,0.092C12.607,0.367 11.161,0.719 9.799,1.147C8.438,1.576 7.114,2.096 5.829,2.708L6.013,2.616C5.095,3.993 4.253,5.431 3.488,6.931C2.754,8.43 2.127,9.991 1.606,11.612C1.086,13.234 0.688,14.917 0.413,16.661C0.138,18.375 0,20.149 0,21.985C0,22.567 0.015,23.148 0.046,23.729C0.076,24.311 0.122,24.892 0.184,25.474L0.138,25.336C1.576,26.407 3.113,27.371 4.75,28.228C6.388,29.084 8.093,29.788 9.868,30.339L10.098,30.385C10.465,29.895 10.824,29.375 11.176,28.824C11.528,28.273 11.872,27.707 12.209,27.126L12.255,26.988C11.612,26.743 11.008,26.483 10.442,26.208C9.876,25.933 9.333,25.642 8.813,25.336L8.904,25.382C9.057,25.259 9.203,25.145 9.34,25.038C9.478,24.931 9.608,24.831 9.73,24.739C11.169,25.443 12.729,25.994 14.412,26.392C16.095,26.789 17.839,26.988 19.645,26.988C21.45,26.988 23.194,26.789 24.877,26.392C26.56,25.994 28.166,25.412 29.696,24.647L29.559,24.739C29.834,24.953 30.109,25.168 30.385,25.382C29.895,25.657 29.383,25.933 28.847,26.208C28.312,26.483 27.753,26.743 27.172,26.988L27.034,27.034C27.371,27.677 27.715,28.289 28.067,28.87C28.419,29.452 28.794,30.018 29.191,30.568L29.146,30.522C31.043,29.91 32.817,29.176 34.47,28.319C36.122,27.463 37.683,26.483 39.151,25.382L39.06,25.428C39.121,24.908 39.167,24.357 39.197,23.775C39.228,23.194 39.243,22.597 39.243,21.985C39.243,20.211 39.105,18.451 38.83,16.707C38.555,14.963 38.149,13.28 37.614,11.658C37.078,10.036 36.443,8.461 35.709,6.931C34.944,5.431 34.072,3.993 33.093,2.616L33.185,2.754C32.022,2.173 30.783,1.652 29.467,1.193C28.151,0.734 26.789,0.382 25.382,0.138L25.152,0.092ZM13.127,20.746C12.148,20.685 11.322,20.287 10.648,19.553C9.975,18.818 9.639,17.962 9.639,16.982L9.639,16.845C9.639,16.814 9.631,16.784 9.616,16.753C9.6,16.722 9.593,16.707 9.593,16.707C9.593,15.697 9.937,14.833 10.625,14.114C11.314,13.395 12.148,12.989 13.127,12.897C14.137,12.989 14.978,13.395 15.651,14.114C16.325,14.833 16.661,15.697 16.661,16.707L16.661,16.982C16.661,17.992 16.325,18.857 15.651,19.576C14.978,20.295 14.152,20.685 13.173,20.746L13.127,20.746ZM26.162,20.746C25.152,20.685 24.311,20.287 23.638,19.553C22.965,18.818 22.628,17.962 22.628,16.982L22.628,16.707C22.628,15.697 22.965,14.833 23.638,14.114C24.311,13.395 25.137,12.989 26.116,12.897L26.162,12.897C27.141,12.959 27.975,13.356 28.664,14.091C29.352,14.825 29.696,15.682 29.696,16.661C29.696,16.692 29.689,16.722 29.673,16.753C29.658,16.784 29.65,16.814 29.65,16.845C29.65,16.875 29.658,16.898 29.673,16.914C29.689,16.929 29.696,16.952 29.696,16.982C29.696,17.992 29.352,18.857 28.664,19.576C27.975,20.295 27.141,20.685 26.162,20.746Z" style="fill:rgb(0,124,255);fill-rule:nonzero;"/>
            </g>
        </g>
    </g>
</svg>
