<?xml version="1.0" encoding="UTF-8" standalone="no"?>
<!DOCTYPE svg PUBLIC "-//W3C//DTD SVG 1.1//EN" "http://www.w3.org/Graphics/SVG/1.1/DTD/svg11.dtd">
<svg width="100%" height="100%" viewBox="0 0 24 24" version="1.1" xmlns="http://www.w3.org/2000/svg" xmlns:xlink="http://www.w3.org/1999/xlink" xml:space="preserve" style="fill-rule:evenodd;clip-rule:evenodd;stroke-linejoin:round;stroke-miterlimit:2;">
    <g transform="matrix(1,0,0,1,-303,-277)">
        <g transform="matrix(0.555556,0,0,0.888889,0,0)">
            <g id="social-flickr" transform="matrix(1.10472,0,0,0.690449,545.4,319.5)">
                <path d="M17.9,8.95C17.9,10.174 17.671,11.337 17.212,12.438C16.722,13.509 16.072,14.45 15.261,15.261C14.45,16.072 13.509,16.722 12.438,17.212C11.337,17.671 10.174,17.9 8.95,17.9C7.696,17.9 6.533,17.671 5.462,17.212C4.36,16.722 3.404,16.072 2.593,15.261C1.782,14.45 1.147,13.509 0.688,12.438C0.229,11.337 0,10.174 0,8.95C0,7.726 0.229,6.563 0.688,5.462C1.147,4.391 1.782,3.45 2.593,2.639C3.404,1.828 4.36,1.178 5.462,0.688C6.533,0.229 7.696,0 8.95,0C10.174,0 11.337,0.229 12.438,0.688C13.509,1.178 14.45,1.828 15.261,2.639C16.072,3.45 16.722,4.391 17.212,5.462C17.671,6.563 17.9,7.726 17.9,8.95ZM39.105,8.95C39.105,10.174 38.876,11.337 38.417,12.438C37.958,13.509 37.323,14.45 36.512,15.261C35.701,16.072 34.745,16.722 33.644,17.212C32.542,17.671 31.379,17.9 30.155,17.9C28.931,17.9 27.769,17.671 26.667,17.212C25.596,16.722 24.655,16.072 23.844,15.261C23.033,14.45 22.383,13.509 21.894,12.438C21.435,11.337 21.205,10.174 21.205,8.95C21.205,7.726 21.435,6.563 21.894,5.462C22.383,4.391 23.033,3.45 23.844,2.639C24.655,1.828 25.596,1.178 26.667,0.688C27.769,0.229 28.931,0 30.155,0C31.379,0 32.542,0.229 33.644,0.688C34.745,1.178 35.701,1.828 36.512,2.639C37.323,3.45 37.958,4.391 38.417,5.462C38.876,6.563 39.105,7.726 39.105,8.95Z" style="fill:white;fill-rule:nonzero;"/>
            </g>
        </g>
    </g>
</svg>
