<?xml version="1.0" encoding="UTF-8" standalone="no"?>
<!DOCTYPE svg PUBLIC "-//W3C//DTD SVG 1.1//EN" "http://www.w3.org/Graphics/SVG/1.1/DTD/svg11.dtd">
<svg width="100%" height="100%" viewBox="0 0 24 24" version="1.1" xmlns="http://www.w3.org/2000/svg" xmlns:xlink="http://www.w3.org/1999/xlink" xml:space="preserve" xmlns:serif="http://www.serif.com/" style="fill-rule:evenodd;clip-rule:evenodd;stroke-linejoin:round;stroke-miterlimit:2;">
    <g transform="matrix(1,0,0,1,-283,-228)">
        <g transform="matrix(1,0,0,7.60095,0,0)">
            <g id="social-weibo" transform="matrix(0.467098,0,0,0.0614525,284.37,30.3575)">
                <path d="M34.378,20.379C34.072,20.257 33.827,20.134 33.644,20.012C33.46,19.889 33.46,19.614 33.644,19.186C34.011,18.237 34.202,17.365 34.217,16.569C34.233,15.774 34.041,15.101 33.644,14.55C32.909,13.448 31.609,12.913 29.742,12.943C27.876,12.974 25.764,13.479 23.408,14.458C23.408,14.458 23.186,14.519 22.743,14.642C22.299,14.764 22.169,14.535 22.353,13.953C22.689,12.76 22.827,11.696 22.766,10.763C22.704,9.83 22.398,9.073 21.848,8.491C21.205,7.849 20.333,7.52 19.231,7.504C18.13,7.489 16.898,7.757 15.537,8.308C14.175,8.858 12.737,9.654 11.222,10.694C9.708,11.735 8.231,12.989 6.793,14.458C5.722,15.56 4.766,16.669 3.924,17.786C3.083,18.903 2.371,20.019 1.79,21.136C1.209,22.253 0.765,23.347 0.459,24.418C0.153,25.489 0,26.529 0,27.539C0,29.467 0.551,31.226 1.652,32.817C2.754,34.409 4.207,35.763 6.013,36.879C7.818,37.996 9.868,38.868 12.163,39.496C14.458,40.123 16.799,40.437 19.186,40.437C22.307,40.437 25.137,39.993 27.677,39.105C30.216,38.218 32.397,37.101 34.217,35.755C36.038,34.409 37.445,32.932 38.44,31.326C39.434,29.719 39.932,28.182 39.932,26.713C39.932,24.969 39.335,23.577 38.142,22.536C36.948,21.496 35.694,20.777 34.378,20.379ZM19.231,36.948C17.334,37.132 15.529,37.071 13.815,36.765C12.102,36.459 10.58,35.961 9.249,35.273C7.917,34.584 6.839,33.72 6.013,32.68C5.187,31.639 4.712,30.507 4.59,29.283C4.467,28.029 4.712,26.812 5.324,25.634C5.936,24.456 6.824,23.393 7.986,22.444C9.149,21.496 10.541,20.708 12.163,20.081C13.785,19.453 15.544,19.033 17.441,18.818C19.339,18.635 21.144,18.696 22.857,19.002C24.571,19.308 26.086,19.813 27.401,20.517C28.717,21.22 29.788,22.085 30.614,23.11C31.44,24.135 31.915,25.275 32.037,26.529C32.16,27.784 31.915,29 31.303,30.178C30.691,31.356 29.811,32.412 28.664,33.345C27.516,34.278 26.132,35.066 24.51,35.709C22.888,36.352 21.129,36.765 19.231,36.948ZM46.725,14.091C46.725,12.132 46.357,10.304 45.623,8.606C44.889,6.908 43.887,5.416 42.617,4.131C41.347,2.846 39.855,1.836 38.142,1.102C36.428,0.367 34.592,0 32.634,0C32.175,0 31.785,0.161 31.463,0.482C31.142,0.803 30.981,1.193 30.981,1.652C30.981,2.111 31.142,2.501 31.463,2.823C31.785,3.144 32.175,3.305 32.634,3.305C34.133,3.305 35.541,3.588 36.856,4.154C38.172,4.72 39.32,5.493 40.299,6.472C41.278,7.451 42.051,8.591 42.617,9.891C43.183,11.192 43.466,12.591 43.466,14.091C43.466,14.55 43.626,14.94 43.948,15.261C44.269,15.583 44.659,15.743 45.118,15.743C45.577,15.743 45.96,15.583 46.266,15.261C46.572,14.94 46.725,14.55 46.725,14.091ZM40.207,13.861C39.84,12.025 38.991,10.442 37.66,9.111C36.329,7.78 34.745,6.915 32.909,6.518C32.45,6.426 32.029,6.51 31.647,6.77C31.264,7.03 31.027,7.374 30.936,7.803C30.844,8.262 30.928,8.682 31.188,9.065C31.448,9.447 31.792,9.685 32.221,9.776C33.414,9.991 34.447,10.534 35.319,11.406C36.191,12.278 36.749,13.311 36.994,14.504C37.086,14.963 37.323,15.315 37.706,15.56C38.088,15.804 38.493,15.881 38.922,15.789C39.381,15.697 39.733,15.46 39.978,15.078C40.222,14.695 40.299,14.29 40.207,13.861ZM15.33,23.729C13.8,24.035 12.584,24.747 11.681,25.864C10.778,26.981 10.465,28.182 10.74,29.467C10.985,30.721 11.735,31.693 12.989,32.381C14.244,33.07 15.636,33.261 17.166,32.955C18.696,32.649 19.912,31.938 20.815,30.821C21.718,29.704 22.047,28.503 21.802,27.218C21.526,25.963 20.761,24.992 19.507,24.303C18.252,23.615 16.86,23.424 15.33,23.729Z" style="fill:rgb(0,124,255);fill-rule:nonzero;"/>
            </g>
        </g>
    </g>
</svg>
