<?xml version="1.0" encoding="UTF-8" standalone="no"?>
<!DOCTYPE svg PUBLIC "-//W3C//DTD SVG 1.1//EN" "http://www.w3.org/Graphics/SVG/1.1/DTD/svg11.dtd">
<svg width="100%" height="100%" viewBox="0 0 24 24" version="1.1" xmlns="http://www.w3.org/2000/svg" xmlns:xlink="http://www.w3.org/1999/xlink" xml:space="preserve" xmlns:serif="http://www.serif.com/" style="fill-rule:evenodd;clip-rule:evenodd;stroke-linejoin:round;stroke-miterlimit:2;">
    <g transform="matrix(1,0,0,1,-191,-228)">
        <g transform="matrix(1,0,0,7.60095,0,0)">
            <g id="social-twitter" transform="matrix(0.418602,0,0,0.0550723,193.935,30.6319)">
                <path d="M45.807,0.734C43.91,1.836 41.859,2.601 39.656,3.029C37.759,1.01 35.403,0 32.588,0C29.956,0 27.692,0.949 25.795,2.846C23.898,4.743 22.949,7.007 22.949,9.639C22.949,10.373 23.041,11.107 23.225,11.842C19.308,11.658 15.621,10.679 12.163,8.904C8.705,7.13 5.783,4.743 3.396,1.744C2.479,3.213 2.02,4.835 2.02,6.609C2.02,10.036 3.458,12.699 6.334,14.596C4.804,14.596 3.366,14.198 2.02,13.402L2.02,13.586C2.02,15.85 2.739,17.87 4.177,19.645C5.615,21.419 7.466,22.551 9.73,23.041C8.874,23.225 8.017,23.316 7.16,23.316C6.548,23.316 5.936,23.255 5.324,23.133C5.997,25.091 7.145,26.698 8.767,27.952C10.388,29.207 12.24,29.834 14.32,29.834C10.832,32.588 6.854,33.965 2.387,33.965C1.652,33.965 0.887,33.934 0.092,33.873C4.62,36.749 9.547,38.188 14.871,38.188C19.155,38.188 23.072,37.361 26.621,35.709C30.171,34.057 33.062,31.899 35.296,29.237C37.53,26.575 39.258,23.638 40.482,20.425C41.706,17.212 42.318,13.984 42.318,10.74L42.318,9.547C44.216,8.139 45.807,6.456 47.092,4.498C45.317,5.294 43.481,5.814 41.584,6.059C43.665,4.773 45.072,2.999 45.807,0.734Z" style="fill:rgb(0,124,255);fill-rule:nonzero;"/>
            </g>
        </g>
    </g>
</svg>
