<?xml version="1.0" encoding="UTF-8" standalone="no"?>
<!DOCTYPE svg PUBLIC "-//W3C//DTD SVG 1.1//EN" "http://www.w3.org/Graphics/SVG/1.1/DTD/svg11.dtd">
<svg width="100%" height="100%" viewBox="0 0 24 24" version="1.1" xmlns="http://www.w3.org/2000/svg" xmlns:xlink="http://www.w3.org/1999/xlink" xml:space="preserve" xmlns:serif="http://www.serif.com/" style="fill-rule:evenodd;clip-rule:evenodd;stroke-linejoin:round;stroke-miterlimit:2;">
    <g transform="matrix(1,0,0,1,-146,-271)">
        <g transform="matrix(1,0,0,7.60095,0,0)">
            <g id="social-instagram" transform="matrix(0.111928,0,0,0.0147255,82.6632,30.6461)">
                <path d="M626.956,372.102L714.191,372.102C733.018,372.102 748.473,387.555 748.473,406.382L748.473,493.54C748.473,512.444 733.018,527.9 714.191,527.9L626.956,527.9C608.129,527.9 592.675,512.444 592.675,493.54L592.675,406.382C592.675,387.555 608.129,372.102 626.956,372.102ZM693.414,503.026L647.733,503.026C631.091,503.026 617.551,489.486 617.551,472.843L617.551,427.159C617.551,410.516 631.091,396.978 647.733,396.978L693.414,396.978C710.058,396.978 723.598,410.516 723.598,427.159L723.598,472.843C723.598,489.486 710.058,503.026 693.414,503.026ZM647.733,406.067C636.103,406.067 626.64,415.53 626.64,427.159L626.64,472.843C626.64,484.474 636.103,493.937 647.733,493.937L693.414,493.937C705.046,493.937 714.507,484.474 714.507,472.843L714.507,427.159C714.507,415.53 705.046,406.067 693.414,406.067L647.733,406.067ZM670.574,477.154C655.602,477.154 643.419,464.975 643.419,450.003C643.419,435.03 655.602,422.847 670.574,422.847C685.545,422.847 697.728,435.03 697.728,450.003C697.728,464.975 685.545,477.154 670.574,477.154ZM670.574,431.938C660.614,431.938 652.51,440.04 652.51,450.003C652.51,459.961 660.614,468.065 670.574,468.065C680.533,468.065 688.637,459.961 688.637,450.003C688.637,440.04 680.533,431.938 670.574,431.938ZM705.418,421.294C705.418,424.901 702.494,427.82 698.894,427.82C695.289,427.82 692.365,424.901 692.365,421.294C692.365,417.692 695.289,414.768 698.894,414.768C702.494,414.768 705.418,417.692 705.418,421.294Z" style="fill:rgb(0,124,255);"/>
            </g>
        </g>
    </g>
</svg>
